<svg xmlns="http://www.w3.org/2000/svg" viewBox="0 0 24 24" width="24" height="24">
  <!-- Blue rounded background (Tandem #0696D7) -->
  <rect width="24" height="24" rx="4.8" ry="4.8" fill="#0696D7"/>
  <!-- White bar chart (same path as index.html) -->
  <path fill="none" stroke="white" stroke-width="2" stroke-linecap="round" stroke-linejoin="round"
        d="M9 19v-6a2 2 0 00-2-2H5a2 2 0 00-2 2v6a2 2 0 002 2h2a2 2 0 002-2zm0 0V9a2 2 0 012-2h2a2 2 0 012 2v10m-6 0a2 2 0 002 2h2a2 2 0 002-2m0 0V5a2 2 0 012-2h2a2 2 0 012 2v14a2 2 0 01-2 2h-2a2 2 0 01-2-2z"/>
</svg>
